<svg height="512" viewBox="0 0 64 64" width="512" xmlns="http://www.w3.org/2000/svg"><g id="Layer_43" data-name="Layer 43"><path d="m45 3h-26a4 4 0 0 0 -4 4v2h34v-2a4 4 0 0 0 -4-4z" fill="#006df0"/><path d="m15 57a4 4 0 0 0 4 4h26a4 4 0 0 0 4-4v-2h-34z" fill="#006df0"/><path d="m15 9h34v46h-34z" fill="#ffdaaa"/><path d="m15 55h34v-34a34 34 0 0 1 -34 34z" fill="#ffc477"/><circle cx="32" cy="32" fill="#ff7956" r="10"/><path d="m34.863 22.421a9.985 9.985 0 0 1 -12.726 11.158 9.994 9.994 0 1 0 12.726-11.158z" fill="#ff6243"/><circle cx="51" cy="15" fill="#ffa733" r="10"/><path d="m53.863 5.421a10.021 10.021 0 0 1 .137 1.579 9.993 9.993 0 0 1 -12.863 9.579 9.994 9.994 0 1 0 12.726-11.158z" fill="#ff9811"/><circle cx="13" cy="49" fill="#ffcd00" r="10"/><path d="m15.863 39.421a9.985 9.985 0 0 1 -12.726 11.158 9.994 9.994 0 1 0 12.726-11.158z" fill="#ebbf00"/><g fill="#231f20"><path d="m51 26a11 11 0 0 0 0-22 11.63 11.63 0 0 0 -1.88.17 4.957 4.957 0 0 0 -4.12-2.17h-26a5 5 0 0 0 -5 5v16.74a15.022 15.022 0 0 0 -8 13.26 1 1 0 0 0 2 0 13.01 13.01 0 0 1 6-10.94v11.99c-.33-.03-.66-.05-1-.05a11 11 0 0 0 0 22 11.63 11.63 0 0 0 1.88-.17 4.957 4.957 0 0 0 4.12 2.17h26a5 5 0 0 0 5-5v-16.74a15.022 15.022 0 0 0 8-13.26 1 1 0 0 0 -2 0 13.01 13.01 0 0 1 -6 10.94v-11.99c.33.03.66.05 1 .05zm-35-19a3.009 3.009 0 0 1 3-3h26a2.955 2.955 0 0 1 2 .77 10.908 10.908 0 0 0 -4.48 3.23h-26.52zm-3 51a9 9 0 1 1 9-9 9.014 9.014 0 0 1 -9 9zm35-1a3.009 3.009 0 0 1 -3 3h-26a2.955 2.955 0 0 1 -2-.77 10.908 10.908 0 0 0 4.48-3.23h26.52zm0-18a13.007 13.007 0 0 1 -5 1 1 1 0 0 0 0 2 14.807 14.807 0 0 0 5-.88v12.88h-25.21a10.971 10.971 0 0 0 -6.79-15.57v-13.43a13.007 13.007 0 0 1 5-1 1 1 0 0 0 0-2 14.807 14.807 0 0 0 -5 .88v-12.88h25.21a10.971 10.971 0 0 0 6.79 15.57zm-6-24a9 9 0 1 1 9 9 9.014 9.014 0 0 1 -9-9z"/><path d="m32 21a11 11 0 1 0 11 11 11.007 11.007 0 0 0 -11-11zm0 20a9 9 0 1 1 9-9 9.014 9.014 0 0 1 -9 9z"/><path d="m32 29c1.221 0 2 .592 2 1a1 1 0 0 0 2 0c0-1.421-1.259-2.571-3-2.9v-1.1a1 1 0 0 0 -2 0v1.1c-1.741.327-3 1.477-3 2.9 0 1.682 1.757 3 4 3 1.221 0 2 .592 2 1s-.779 1-2 1-2-.592-2-1a1 1 0 0 0 -2 0c0 1.421 1.259 2.571 3 2.9v1.1a1 1 0 0 0 2 0v-1.1c1.741-.327 3-1.477 3-2.9 0-1.682-1.757-3-4-3-1.221 0-2-.592-2-1s.779-1 2-1z"/><path d="m31 7h2a1 1 0 0 0 0-2h-2a1 1 0 0 0 0 2z"/><path d="m33 57h-2a1 1 0 0 0 0 2h2a1 1 0 0 0 0-2z"/><path d="m55 21a1 1 0 0 1 -1 1h-2a5.017 5.017 0 0 1 -4.9-4h-1.1a1 1 0 0 1 0-2h1v-2h-1a1 1 0 0 1 0-2h1.1a5.017 5.017 0 0 1 4.9-4h2a1 1 0 0 1 0 2h-2a3.01 3.01 0 0 0 -2.82 2h2.82a1 1 0 0 1 0 2h-3v2h3a1 1 0 0 1 0 2h-2.82a3.01 3.01 0 0 0 2.82 2h2a1 1 0 0 1 1 1z"/><path d="m17 54a1 1 0 0 1 -1 1h-7a1.016 1.016 0 0 1 -.93-.62 1 1 0 0 1 .23-1.09l1.4-1.39a1.017 1.017 0 0 0 .3-.71v-1.19h-1a1 1 0 0 1 0-2h1v-1a5 5 0 0 1 5-5h1a1 1 0 0 1 0 2h-1a3.009 3.009 0 0 0 -3 3v1h3a1 1 0 0 1 0 2h-3v1.19a3.035 3.035 0 0 1 -.61 1.81h4.61a1 1 0 0 1 1 1z"/></g></g></svg>