<?xml version="1.0"?>
<svg xmlns="http://www.w3.org/2000/svg" xmlns:xlink="http://www.w3.org/1999/xlink" xmlns:svgjs="http://svgjs.com/svgjs" version="1.1" width="512" height="512" x="0" y="0" viewBox="0 0 512 512" style="enable-background:new 0 0 512 512" xml:space="preserve" class=""><g>
<g xmlns="http://www.w3.org/2000/svg">
	<g>
		<path d="M256,0C116.513,0,0,116.141,0,256c0,139.481,116.134,256,256,256c139.487,0,256-116.141,256-256    C512,116.519,395.866,0,256,0z M256,482c-59.455,0-115.957-23.759-159.099-66.901C11.255,329.453,7.845,197.225,86.639,107.852    L151,172.213V236.2l-7.268-8.815C135.146,216.972,122.487,211,109,211c-24.813,0-45,20.187-45,44.999    c-0.001,9.519,2.938,18.622,8.498,26.323l76.814,106.398C177.487,427.718,222.978,451,271,451    c43.586,0,82.883-18.692,110.314-48.473l22.835,22.835C362.608,461.985,310.551,482,256,482z M215.392,236.605    c0.001,0.001,0.002,0.002,0.003,0.003l144.696,144.696C338.113,405.663,306.315,421,271,421    c-38.419,0-74.819-18.635-97.368-49.845L96.821,264.761C94.975,262.205,94,259.176,94,256c0-8.271,6.729-15,15-15    c4.496,0,8.719,1.994,11.585,5.47l33.841,41.045c8.941,10.842,26.574,4.459,26.574-9.542v-75.76L215.392,236.605z M181,159.787    V136c0-8.271,6.729-15,15-15s15,6.729,15,15v53.787L181,159.787z M286,241c8.284,0,15-6.716,15-15v-90c0-8.271,6.729-15,15-15    s15,6.729,15,15v90c0,8.284,6.716,15,15,15s15-6.716,15-15v-60c0-8.271,6.729-15,15-15s15,6.729,15,15v135.005    c0,19.92-4.885,38.719-13.512,55.271L241,219.787V106c0-8.271,6.729-15,15-15s15,6.729,15,15v120C271,234.284,277.716,241,286,241    z M425.361,404.148l-25.854-25.854C413.144,355.708,421,329.257,421,301.005V166c0-24.813-20.187-45-45-45    c-5.852,0-11.446,1.123-16.579,3.164C354.211,105.075,336.718,91,316,91c-5.852,0-11.446,1.123-16.579,3.164    C294.211,75.075,276.718,61,256,61c-20.718,0-38.211,14.075-43.421,33.164C207.446,92.123,201.852,91,196,91    c-22.838,0-41.744,17.106-44.611,39.176L107.85,86.637C149.392,50.015,201.449,30,256,30c59.455,0,115.957,23.759,159.099,66.901    C500.745,182.547,504.154,314.775,425.361,404.148z" fill="#ffffff" data-original="#000000" style="" class=""/>
	</g>
</g>
<g xmlns="http://www.w3.org/2000/svg">
</g>
<g xmlns="http://www.w3.org/2000/svg">
</g>
<g xmlns="http://www.w3.org/2000/svg">
</g>
<g xmlns="http://www.w3.org/2000/svg">
</g>
<g xmlns="http://www.w3.org/2000/svg">
</g>
<g xmlns="http://www.w3.org/2000/svg">
</g>
<g xmlns="http://www.w3.org/2000/svg">
</g>
<g xmlns="http://www.w3.org/2000/svg">
</g>
<g xmlns="http://www.w3.org/2000/svg">
</g>
<g xmlns="http://www.w3.org/2000/svg">
</g>
<g xmlns="http://www.w3.org/2000/svg">
</g>
<g xmlns="http://www.w3.org/2000/svg">
</g>
<g xmlns="http://www.w3.org/2000/svg">
</g>
<g xmlns="http://www.w3.org/2000/svg">
</g>
<g xmlns="http://www.w3.org/2000/svg">
</g>
</g></svg>
