<?xml version="1.0"?>
<svg xmlns="http://www.w3.org/2000/svg" xmlns:xlink="http://www.w3.org/1999/xlink" xmlns:svgjs="http://svgjs.com/svgjs" version="1.1" width="512" height="512" x="0" y="0" viewBox="0 0 74 74" style="enable-background:new 0 0 512 512" xml:space="preserve" class=""><g><path xmlns="http://www.w3.org/2000/svg" d="m63.029 68.662a4.02 4.02 0 0 1 -3.029-1.376 4.028 4.028 0 0 1 -7.06-2.654v-13.732a3.468 3.468 0 0 1 -4.94-3.143v-11.34a6.694 6.694 0 0 1 6.686-6.686h10.627a6.7 6.7 0 0 1 6.687 6.686v11.34a3.469 3.469 0 0 1 -4.941 3.143v13.732a4.035 4.035 0 0 1 -4.03 4.03zm-2.029-4.03a2.03 2.03 0 1 0 4.059 0v-24.965a1 1 0 0 1 2 0v8.09a1.471 1.471 0 1 0 2.941 0v-11.34a4.692 4.692 0 0 0 -4.687-4.686h-10.627a4.691 4.691 0 0 0 -4.686 4.686v11.34a1.47 1.47 0 1 0 2.94 0v-8.09a1 1 0 0 1 2 0v24.965a2.03 2.03 0 0 0 4.06 0v-12.592a1 1 0 1 1 2 0z" fill="#ffffff" data-original="#000000" style="" class=""/><path xmlns="http://www.w3.org/2000/svg" d="m60.066 31.731h-.14a6.7 6.7 0 0 1 -6.557-6.766v-.517a6.7 6.7 0 0 1 6.569-6.766h.118a6.7 6.7 0 0 1 6.574 6.766v.517a6.7 6.7 0 0 1 -6.564 6.766zm-.015-12.049h-.108a4.694 4.694 0 0 0 -4.574 4.766v.517a4.7 4.7 0 0 0 4.573 4.766h.108a4.7 4.7 0 0 0 4.58-4.766v-.517a4.7 4.7 0 0 0 -4.579-4.766z" fill="#ffffff" data-original="#000000" style="" class=""/><path xmlns="http://www.w3.org/2000/svg" d="m17.029 68.662a4.02 4.02 0 0 1 -3.029-1.376 4.028 4.028 0 0 1 -7.06-2.654v-13.732a3.468 3.468 0 0 1 -4.94-3.143v-11.34a6.694 6.694 0 0 1 6.686-6.686h10.627a6.7 6.7 0 0 1 6.687 6.686v11.34a3.469 3.469 0 0 1 -4.941 3.143v13.732a4.035 4.035 0 0 1 -4.03 4.03zm-2.029-16.622v12.592a2.03 2.03 0 1 0 4.059 0v-24.965a1 1 0 0 1 2 0v8.09a1.471 1.471 0 1 0 2.941 0v-11.34a4.692 4.692 0 0 0 -4.687-4.686h-10.627a4.691 4.691 0 0 0 -4.686 4.686v11.34a1.47 1.47 0 1 0 2.94 0v-8.09a1 1 0 0 1 2 0v24.965a2.03 2.03 0 0 0 4.06 0v-12.592a1 1 0 1 1 2 0z" fill="#ffffff" data-original="#000000" style="" class=""/><path xmlns="http://www.w3.org/2000/svg" d="m14.066 31.731h-.139a6.7 6.7 0 0 1 -6.557-6.766v-.517a6.7 6.7 0 0 1 6.568-6.766h.118a6.7 6.7 0 0 1 6.574 6.766v.517a6.7 6.7 0 0 1 -6.564 6.766zm-.1-2h.091a4.7 4.7 0 0 0 4.573-4.766v-.517a4.7 4.7 0 0 0 -4.579-4.766h-.108a4.694 4.694 0 0 0 -4.573 4.766v.517a4.7 4.7 0 0 0 4.573 4.766z" fill="#ffffff" data-original="#000000" style="" class=""/><path xmlns="http://www.w3.org/2000/svg" d="m48.928 62.713h-23.857a1 1 0 0 1 0-2h23.857a1 1 0 0 1 0 2z" fill="#ffffff" data-original="#000000" style="" class=""/><path xmlns="http://www.w3.org/2000/svg" d="m45.75 65.891a1 1 0 0 1 -.707-1.707l2.471-2.471-2.471-2.47a1 1 0 0 1 1.414-1.414l3.178 3.177a1 1 0 0 1 0 1.414l-3.178 3.18a1 1 0 0 1 -.707.291z" fill="#ffffff" data-original="#000000" style="" class=""/><path xmlns="http://www.w3.org/2000/svg" d="m28.249 65.891a1 1 0 0 1 -.707-.293l-3.178-3.178a1 1 0 0 1 0-1.414l3.178-3.177a1 1 0 1 1 1.414 1.414l-2.471 2.47 2.471 2.471a1 1 0 0 1 -.707 1.707z" fill="#ffffff" data-original="#000000" style="" class=""/><path xmlns="http://www.w3.org/2000/svg" d="m37 29.838a12.25 12.25 0 1 1 12.25-12.25 12.263 12.263 0 0 1 -12.25 12.25zm0-22.5a10.25 10.25 0 1 0 10.25 10.25 10.262 10.262 0 0 0 -10.25-10.25z" fill="#ffffff" data-original="#000000" style="" class=""/><path xmlns="http://www.w3.org/2000/svg" d="m34.857 22.07a1 1 0 0 1 -.707-.293l-2.678-2.677a1 1 0 0 1 1.414-1.414l1.971 1.971 6.257-6.257a1 1 0 0 1 1.414 1.414l-6.964 6.964a.993.993 0 0 1 -.707.292z" fill="#ffffff" data-original="#000000" style="" class=""/></g></svg>
