<svg id="Layer_1" data-name="Layer 1" xmlns="http://www.w3.org/2000/svg" viewBox="0 0 182.8 14.7"><title>bunga2</title><path d="M122.5,193.1h-.8c-1.4.4-2.5,3-2.1,6.1s.2,2.1-.4,2.6c-3.5,2.6-7.5,2.9-10.4,3A40.6,40.6,0,0,1,90.1,200l-2-1a12.1,12.1,0,0,1-1.9-1,10.2,10.2,0,0,0-6.1-1.6,6.6,6.6,0,0,0-4.9,1.9,5,5,0,0,0-1.6,4.5c.5,3.2,3.5,3.9,6,2.8s2.2-2.9,1.5-3.9a3.1,3.1,0,0,0-1.8-.9c-.6.1-.5.9.2,1.4s-.5,3.5-2.5,2.7-2.5-4.4-.2-6.1a4.2,4.2,0,0,1,3.1-1.3c1.6-.2,2.8.1,4.8,1.3l.9.3.7.2,1.6.9,1.6.9,1.4.7c6.3,3.2,13.2,5.2,20.7,4.4a18.1,18.1,0,0,0,7.6-3c1.7-1,1.4-1,3.1.7a9.7,9.7,0,0,0,6.9,2.4c2.6,0,4.1-.5,5-1.5l1-1a2.1,2.1,0,0,0,.4-1.2c-.1-.7,0-.8.8-.8a4.3,4.3,0,0,0,1.8-.6l1.2-.6c1.4,1.2,2.1,2.9,3.3,4.3s.8,1,1.4.8,2.2-1.8,3.1-3.3,1.2-1.2,2.2-.6a32.3,32.3,0,0,0,7,1.5,7.3,7.3,0,0,1,2.3,1.3,15,15,0,0,0,5.1,1.6c7.5.8,18.6-1.2,24.9-4.4l1.4-.7,1.6-.9a20,20,0,0,1,8-2.7,4.2,4.2,0,0,1,3.1,1.3c2.3,1.7,2.8,4.9-.2,6.1s-3.9-1.7-2.5-2.7.8-1.3.2-1.4a2.8,2.8,0,0,0-1.8.9c-.7,1,.3,3.4,1.4,3.9s5.6.4,6-2.8a4.7,4.7,0,0,0-1.5-4.5,6.8,6.8,0,0,0-4.9-1.9,10.2,10.2,0,0,0-6.1,1.6l-1.9,1-2,1a55.8,55.8,0,0,1-22.1,5.2,33.5,33.5,0,0,1-7.1-1.3c-.5-.5-.3-.7.6-.7a2.4,2.4,0,0,0,2.4-2.4,1.9,1.9,0,0,0-1-1.7,3.4,3.4,0,0,0-4-.5,2.9,2.9,0,0,0-1.6,2.9c0,.2,0,.5-.1.5l-1.5-.4a14.6,14.6,0,0,1-6.2-2c-.5-.5-1.8-.4-1.8.1a15.9,15.9,0,0,1-.9,2l-1.1,1.4c-.5.6-.9.9-1.2.8a9.3,9.3,0,0,1-1.5-2.2c-1.3-2.3-2.2-3-3.2-2.5a20.8,20.8,0,0,1-3,1l-2-.8c-1.7-.8-2.6-.9-4-.3a2.9,2.9,0,0,0-1.9,3.3,4.1,4.1,0,0,0,.6,1.7,1.8,1.8,0,0,1,.5.7c0,.5-3.2-.1-4.7-.9a8.8,8.8,0,0,1-2.6-2.4,1.7,1.7,0,0,1,.5-1.3,5.7,5.7,0,0,0,1.6-4.6c-.2-1.3-.3-1.7-.9-2.1l-.8-.4Zm-.1,1.6c.3,0,.5.5.5,1.4a4.3,4.3,0,0,1-.8,2.4l-.9,1.4v-1.5a4.1,4.1,0,0,1,.4-2.6c.4-.8.7-1.2.9-1.1Zm37.3,5.1a2.1,2.1,0,0,1,1.5.3c1.2.8.6,1.6-1.3,1.9s-.9.2-1,.1-.3-.2-.4-.4a2.6,2.6,0,0,1,.1-1.2,1.4,1.4,0,0,1,1.1-.7Zm-27.8.1c.7-.1,1.4.4,2,1.4s.6,1.1.3,1.8-.5.8-1.9.9-2.4-.2-2.5-1.8a1.7,1.7,0,0,1,.7-1.7,2,2,0,0,1,1.4-.6Zm0,0" transform="translate(-48.4 -192.4)"/><path d="M221.3,192.4a2.4,2.4,0,0,1,1.5.4c1,.7,1.3.9,1.7,1.7s.3.9.4,1v.3l.2-.2.3-.2.3-.2.8-.5a2.4,2.4,0,0,1,1.5-.2,2.7,2.7,0,0,1,2.1.7c.4.3.5.5.7,1.2a3.9,3.9,0,0,1,.3,1.4,11,11,0,0,1-.6,2.6,6.9,6.9,0,0,1-1.9,1.9l-.4.3-2.9,1.7-2.8,1.7h-.2l-.8.5c-.7.5-1,.5-1.1.3s-.2-.6-.3-1.2a11.7,11.7,0,0,0-.5-2,21.3,21.3,0,0,1-1.3-4.5,6.2,6.2,0,0,1-.1-1.2,8.6,8.6,0,0,1,.1-3.2,2.6,2.6,0,0,1,1.4-2,2.8,2.8,0,0,1,1.5-.4Zm.2.6a2.8,2.8,0,0,0-1.3.3,2,2,0,0,0-1.3,1.4c-.2.3-.2.7-.3,1.7a10.9,10.9,0,0,0,.4,3.4,7,7,0,0,1,.3,1.2l.5,1.4a3.3,3.3,0,0,1,.3,1l.2.5a17.6,17.6,0,0,1,.7,2.2h.1a4.1,4.1,0,0,0,1.4-.8l.5-.4.4-.2,1.8-1.1a24.5,24.5,0,0,0,2.8-1.6l.5-.4a4.9,4.9,0,0,0,2.1-3.8,1.4,1.4,0,0,0-.2-1.3,2.2,2.2,0,0,0-2.1-1.7,3.9,3.9,0,0,0-2.5,1l-.4.2-.4.2h-.2c-.2,0-.3-.1-.4-.7a3.5,3.5,0,0,0-2.9-2.7Zm0,0" transform="translate(-48.4 -192.4)"/><path d="M58.2,192.4a2.3,2.3,0,0,0-1.4.4c-1,.7-1.3.9-1.7,1.7l-.4,1v.3l-.2-.2-.4-.2-.2-.2-.8-.5a2.7,2.7,0,0,0-1.6-.2,2.6,2.6,0,0,0-2,.7c-.4.3-.5.5-.7,1.2a3.9,3.9,0,0,0-.3,1.4,7.6,7.6,0,0,0,.6,2.6,6.9,6.9,0,0,0,1.9,1.9l.4.3,2.9,1.7L57,206h.1l.8.5c.8.5,1.1.5,1.2.3a9,9,0,0,1,.3-1.2,11.7,11.7,0,0,1,.5-2,29.6,29.6,0,0,0,1.3-4.5c0-.5.1-1,.1-1.2a11.5,11.5,0,0,0-.1-3.2,2.5,2.5,0,0,0-1.5-2,2.6,2.6,0,0,0-1.5-.4Zm-.1.6a3.1,3.1,0,0,1,1.3.3,2,2,0,0,1,1.3,1.4c.2.3.2.7.2,1.7a8.8,8.8,0,0,1-.3,3.4,7,7,0,0,0-.3,1.2l-.5,1.4-.4,1a1.1,1.1,0,0,1-.1.5,17.6,17.6,0,0,0-.7,2.2h-.1a4.1,4.1,0,0,1-1.4-.8l-.5-.4-.4-.2-1.8-1.1a24.5,24.5,0,0,1-2.8-1.6l-.6-.4a5.2,5.2,0,0,1-2.1-3.8,2.5,2.5,0,0,1,.2-1.3,2.4,2.4,0,0,1,2.2-1.7,4.4,4.4,0,0,1,2.5,1l.4.2.3.2h.3c.2,0,.2-.1.4-.7a3.4,3.4,0,0,1,2.9-2.7Zm0,0" transform="translate(-48.4 -192.4)"/></svg>