<svg id="Layer_1" data-name="Layer 1" xmlns="http://www.w3.org/2000/svg" viewBox="0 0 115 22"><title>bunga4</title><path d="M123,164.5a9.3,9.3,0,0,0,3.6-1.8l.9-.7.8-.6a36.4,36.4,0,0,0,4.3-5.6,13.3,13.3,0,0,1,.6-1.2l.4-.8a4.1,4.1,0,0,1,.2-.7,6.1,6.1,0,0,0,.5-1.2,5.1,5.1,0,0,1,.4-1v-.5h2.1v.2a5.4,5.4,0,0,0,.4,1.2,4.1,4.1,0,0,1,.4,1.2l.3.5c1.5,3.2,3.2,6.8,6.3,8.8h.2l.9.5,1.2.3.8-.2c.7-.3,1.2-.6,1.4-1.3s.1-.4.8-.4,3.3-.6,3.7-1.5a3.4,3.4,0,0,0,.2-2.2,7.8,7.8,0,0,0-2.5-3.9l-.5-.3-.4-.3-.5-.3h-.2a65.4,65.4,0,0,0-6.8-2.9c-1-.2-1.2-.4-.7-.5a9.8,9.8,0,0,0,2.7-.7l1-.3a12.6,12.6,0,0,0,2.3-.9c4.2-1.9,8.3-2,11.7.4a7.7,7.7,0,0,0,1.3.9,15.6,15.6,0,0,0,2.8,1.6,10.1,10.1,0,0,0,2.2.8l.9.2,1.8.2a6.9,6.9,0,0,0,2.5-.1l3.6-1h.3a8.7,8.7,0,0,0,1.9-.8l.8-.3,1.2-.6c1-.4,1.9-1.1,2.9-1.6l.8-.4.8-.4.4-.2a21,21,0,0,1,3.3-1.1,5.2,5.2,0,0,1,2.5,0,3.3,3.3,0,0,1,2.5,1.6,1.4,1.4,0,0,1-.5,2c-1,.5-1.6-.1-1.2-1.1s.1-.8-.3-.3-.6,1,0,1.7.3.4.8.3a1.8,1.8,0,0,0,1.9-1.2,2.6,2.6,0,0,0-.2-2,2.1,2.1,0,0,1-.4-.7c-.2-.3-.4-.5-1.4-1a6,6,0,0,0-3.9-1.2,6.2,6.2,0,0,0-2.3.2,37.5,37.5,0,0,0-4.7,1.7l-1.6.6-.7.4a41.6,41.6,0,0,1-4,1.6l-1.2.4-2.7.6H168a6.5,6.5,0,0,1-3.3-.7l-2.2-.8-.6-.3-1.7-.8c-3.7-1.2-7.3-2.2-10.9-1,0,.1-.4.2-.9.3l-1.2.4-1.1.4-1.2.5a9.2,9.2,0,0,1-2.7,1l-1.1.3h-.5a4.6,4.6,0,0,1-2.7-.1,3.7,3.7,0,0,0-2.3-.6,3,3,0,0,0-1.7.2c-.7.2-.8.3-1,.7h-3l-1.2-.3c-2.1-.7-3.7-1.6-6.1-2.3l-.9-.3c-3.6-1.3-7.1-.3-10.8.8l-1.8.8-.6.2-2.2.9a7.4,7.4,0,0,1-3.3.6,5.1,5.1,0,0,1-1.8,0l-2.7-.6-1.2-.4a27.6,27.6,0,0,1-4-1.8l-.6-.3-1.7-.7a42.4,42.4,0,0,0-4.7-1.7,5.9,5.9,0,0,0-2.3-.2,5.7,5.7,0,0,0-3.8,1.1c-1.1.5-1.3.7-1.4,1a1.3,1.3,0,0,1-.5.7,2.4,2.4,0,0,0-.2,1.9,1.7,1.7,0,0,0,1.9,1.3c.5.1.6,0,.8-.3s.5-.8,0-1.6-.5-.4-.3.2-.2,1.6-1.2,1.1a1.4,1.4,0,0,1-.5-2,3.3,3.3,0,0,1,2.5-1.6,5.8,5.8,0,0,1,2.6.1,13,13,0,0,1,3.2,1.1l.5.2.7.4.8.4,2.9,1.7,1.1.5.8.4,2,.8h.3l3.6,1.1a6.8,6.8,0,0,0,2.5.1l1.8-.2.8-.2a9.1,9.1,0,0,0,2.3-.7l2.8-1.6,1.3-.9c5.9-3.5,9.8-.7,15,1a28.6,28.6,0,0,0,2.7,1.2h.1l-3.4,1.1-.6.2-1.3.6-1.8.7a9.6,9.6,0,0,0-2.5,1.2l-1.6,1.3v.2a2.9,2.9,0,0,0-1,1.6,3.5,3.5,0,0,0-.1,2,2.8,2.8,0,0,0,2.5,1.8,4.7,4.7,0,0,0,2-.2c.2-.1.1,0-.1.4s-.3.6-.4,1.4a2.2,2.2,0,0,0,.6,1.9l1.2.5Zm-.3-.6h-.4a1.1,1.1,0,0,1-.8-.8,1.8,1.8,0,0,1-.1-1.5,4.6,4.6,0,0,1,1.1-1.8q.6-.3.3.6c-.3.8-.3,1.4,0,1.7s.3.3.7.4a4.5,4.5,0,0,0,2.4-1.1c.7-.6,2.5-2.1,2.5-2.2l3.1-3.9.4-.6.4-.6c.4-.7,1.1-1.9,1.3-2.4s.2-.6.2-.9.2-.5.4-.5l.3.2h-.1c-.1-.1-.7,1.4-.7,1.6a6.1,6.1,0,0,0-.5,1.1,4.2,4.2,0,0,0-.5,1,19.9,19.9,0,0,1-6.1,7.7l-.8.6-.5.3a4.9,4.9,0,0,1-2.6,1Zm24-1.4h-.4a10,10,0,0,1-2.8-1.6,25.1,25.1,0,0,1-5-7.6,4.2,4.2,0,0,0-.3-.9l-.4-1-.2-.5-.2-.5c0-.3.3.1.6.7a2.4,2.4,0,0,0,.3.7l.4.9a23.4,23.4,0,0,0,5.3,7.9,3.5,3.5,0,0,0,2.2,1.2,2,2,0,0,0,1.1,0c.6-.3.7-.5.7-1.3a5,5,0,0,0-1.7-3.7,3.1,3.1,0,0,1-.5-.7,32.3,32.3,0,0,0-4.5-4l-1.3-1-.5-.5-.5-.4-.3-.3a4.8,4.8,0,0,1,1.6.8h.4l.3.2.7.5,1.8,1.1a23.3,23.3,0,0,1,3.9,3.8l.3.6a6,6,0,0,1,.7,1.7c.7,1.8.2,3.4-1.2,3.8Zm-23.2-.6c-.2,0-.3-.1-.4-.3s0-.5.1-.9a1.9,1.9,0,0,0,.2-.7c.1-.5.3-.7,1-1a14.6,14.6,0,0,0,3-1.7,27.4,27.4,0,0,0,3.3-3l.9-1a13.3,13.3,0,0,1,1.4-1.9c.3-.5.4-.5.4-.3l-1,1.8-.5.8-.4.6-.4.7-.5.6a37.3,37.3,0,0,1-3.6,4.3c-1.6,1.4-2.8,2.1-3.5,2Zm23.1-.7-.9-.2a2.1,2.1,0,0,1-1.3-.8l-.9-.7-1.6-2.1a15.7,15.7,0,0,1-2.4-4.1l-.7-1.7c0-.1.6.5,1.5,1.7l1.9,2.4.4.6.3.3.7.7a7.4,7.4,0,0,0,1.3,1.2l.7.6.7.6c1.1.8,1.3,1,.9,1.4Zm3.2-.6h-.5V160c0-1.1-.1-1,.5-.9h1c.5,0,.7,0,1-.3s.4-.3.5-.8a3,3,0,0,0-.7-2.3,7.5,7.5,0,0,0-3.6-3,7.5,7.5,0,0,0-2.4-1.2h-.3l-3-1.2-1.1-.5h-.4l.9.3.8.2.9.3.9.3,2.6,1.1a27.1,27.1,0,0,1,4.1,2.3,8.4,8.4,0,0,1,1.4,1.5l.3.6c.7,1.1.7,3,.1,3.5a3.8,3.8,0,0,1-2.9.9Zm-30-.6a3.2,3.2,0,0,1-1.4-.3c-.2-.2-.5-.3-.5-.2s-.7-.8-.6-1h-.1c-.1,0-.1-.6,0-1.2a6.2,6.2,0,0,1,1.1-1.9,8.6,8.6,0,0,1,1.8-1.6l1.8-.8,3.4-1.4,1-.3.8-.3,2.7-.8,1.5-.3h.5a12.5,12.5,0,0,1-2.7,1.2l-2.6,1.2-3.8,1.7a10.9,10.9,0,0,0-3.5,1.9,3.2,3.2,0,0,0-.9,2.1c.3.8.9.8,3.4,0a13.2,13.2,0,0,0,2.7-1.3L127,155l1.7-1.2.9-.7.7-.6L132,151l1.2-.9a.4.4,0,0,1-.1.3l-.2.2a17,17,0,0,1-2.3,3l-.4.5a21.4,21.4,0,0,1-6.1,4.5,12.8,12.8,0,0,1-3.4,1.3h-.9Zm27.5-.2-.4-.3a15.7,15.7,0,0,1-2.5-2.1l-.6-.5a19.8,19.8,0,0,1-1.7-2.1l-1.5-1.9c-1.7-2.1-1.6-1.9-1.2-1.7l.3.2.7.6.6.5.3.2.4.3a23.9,23.9,0,0,1,3.9,3.7,6.6,6.6,0,0,1,1.7,2.7Zm3.5-1.1h-.6c-.9-.1-1.2-.3-1.3-.8a15.9,15.9,0,0,0-1.9-3,23.6,23.6,0,0,0-3.4-3l-.9-.6c-.9-.5-1-.7-.2-.3l2.1.8,1.5.6a4.5,4.5,0,0,1,1.2.6c1.9,1,3.6,2.2,4.3,4.2s.2.8,0,1-.3.5-.8.5Zm-31.5-.8H119c-.5-.3-.2-1.1.9-2l1.1-.8,3.7-1.6,3.9-1.7-.6.4a12.5,12.5,0,0,0-2.4,1.6l-1,.8a8.7,8.7,0,0,0-1.9,2.3l-.3.2h-.3l-2.3.7Zm4.5-1.8.4-.4c.1-.2.3-.4.3-.5l.2-.2.7-.5a10.3,10.3,0,0,1,2.6-1.9c.4-.2.7-.3.7-.4l.8-.4,1.1-.6.7-.3.3-.2-.2.2a1,1,0,0,1-.5.4l-.5.5c-.9.8-2.7,2-3.1,2.3l-.3.2-.6.4-.9.6-1,.5-.7.3Zm45.4-5.3-2.4-.3a14.1,14.1,0,0,1-3.1-1l-.9-.4-3.2-2.1c-3.2-2.2-6.8-2.3-11.4-.5l-2.3,1-2.2.6a8,8,0,0,1-3.6.5h-1.2c-.5-.1-.6-.2-.6-.3h.5a15.2,15.2,0,0,0,5.7-1.1,16,16,0,0,1,2.9-1.1l1.8-.6c3.5-1.3,7.2-.5,10.4.6l1.5.6c1.8.9,2.1,1.1,2.5,1.1l.5.2.7.3a9.2,9.2,0,0,0,4.6.6,6,6,0,0,0,2.9-.5l1-.3c2.2-.9,4.4-1.6,6.5-2.7a54.4,54.4,0,0,1,5.2-1.9,8.5,8.5,0,0,1,4.2.2l.9.5c.7.4.7.5,0,.2a4.8,4.8,0,0,0-2.7-.1,13.7,13.7,0,0,0-5.1,1.8l-1.1.5-1,.6-.7.4-.8.4-.9.5h-.4l-2,.9-3.6,1.1h-.7a6.2,6.2,0,0,1-1.9.2Zm-67.4-.1-2-.2h-.6l-3.7-1.2-2-.9h-.3l-.9-.5-.8-.5-.7-.4-1-.5-1.1-.6a15.8,15.8,0,0,0-5-1.9,5,5,0,0,0-2.8.2c-.7.2-.7.1,0-.2l1-.6a9.8,9.8,0,0,1,4.2-.1,53.8,53.8,0,0,1,5.1,2c2.1,1.1,4.3,1.8,6.4,2.7l1.1.4a10.1,10.1,0,0,0,2.9.5,8.7,8.7,0,0,0,4.5-.6l.7-.2.6-.2a11.9,11.9,0,0,0,2.5-1.1l1.5-.6c3.2-1,6.9-1.8,10.4-.5s6.8,3,10.3,2.9h.5v.5H132l-1,.2a12.6,12.6,0,0,1-3.8-1,18.2,18.2,0,0,1-4.4-1.7c-4.6-1.8-8.2-1.7-11.4.4a24.2,24.2,0,0,1-3.2,2l-.9.4a13.3,13.3,0,0,1-3.2,1.1l-2.3.2Zm32.3-.9c-.2,0-.4-.2-.8-.5s-.3-.3-.3-.7a1.3,1.3,0,0,1,1-1c.6-.1.6-.1.9.1s.7,1.1,0,1.7-.5.4-.8.4Zm2.4-.2h.1c.3.1.5-1,.3-1.5s0-.4.4-.1.3.3.3.6a.9.9,0,0,1-.3.7,1.5,1.5,0,0,1-.8.5Zm-.5-.5c-.1,0-.1-.1,0-.4a1.5,1.5,0,0,0-.2-.9c-.2-.2-.3-.4-.2-.4s.7.1.8.7-.1.9-.3,1Zm0,0" transform="translate(-78 -142.5)"/></svg>