<svg id="Layer_1" data-name="Layer 1" xmlns="http://www.w3.org/2000/svg" viewBox="0 0 145.5 27.9"><title>bunga1</title><path d="M176,149.8a13.6,13.6,0,0,0-4.5,2.3l-1.2.9-1,.8a43,43,0,0,0-5.3,7,10.2,10.2,0,0,0-.8,1.5,4.1,4.1,0,0,0-.5,1.1l-.4.9-.6,1.5a8.3,8.3,0,0,1-.4,1.2c-.1.2-.1.5-.2.6s-.1.2-.3.2h-2.3v-.4a8.2,8.2,0,0,0-.5-1.4,11.6,11.6,0,0,1-.6-1.6l-.3-.6c-1.9-4-4.1-8.6-8-11.1l-.3-.2-1.1-.6-1.5-.4-1,.2a2.9,2.9,0,0,0-1.8,1.8c-.2.4-.2.4-1,.4s-4.1.8-4.7,1.9a4.1,4.1,0,0,0-.2,2.9,9.6,9.6,0,0,0,3.1,4.8l.6.4.6.4.6.3.3.2c.3.4,6.4,2.9,8.6,3.6s1.4.5.8.6a18.1,18.1,0,0,0-3.4,1l-1.2.4a9.9,9.9,0,0,0-2.9,1.1c-5.4,2.3-10.6,2.6-14.9-.5A13.3,13.3,0,0,0,128,170l-3.5-2-2.9-1-1-.2a8.8,8.8,0,0,0-2.3-.4,16.2,16.2,0,0,0-3.2.2l-4.5,1.3h-.4a14.3,14.3,0,0,0-2.5,1l-1,.5-1.4.7c-1.3.5-2.5,1.4-3.8,2l-1,.5-.9.5-.5.3a30.8,30.8,0,0,1-4.2,1.3,6.1,6.1,0,0,1-3.3,0,4.6,4.6,0,0,1-3.1-1.9,1.7,1.7,0,0,1,.7-2.6c1.2-.7,2,.1,1.5,1.4s-.1,1,.3.3.8-1.2.1-2.1a1.1,1.1,0,0,0-1-.4c-1.6.1-2.2.7-2.5,1.6a3.8,3.8,0,0,0,.3,2.5,2.2,2.2,0,0,1,.5.8c.3.5.5.7,1.8,1.4a7.6,7.6,0,0,0,4.9,1.4c1.8.1,2.1.1,2.9-.2s4.1-1.3,6-2.1l2-.9.8-.4,5.1-2.1,1.6-.5,3.3-.7a8.4,8.4,0,0,1,2.3,0,10.9,10.9,0,0,1,4.2.9l2.8,1,.8.4,2.2,1c4.6,1.5,9.1,2.8,13.6,1.2l1.2-.4,1.6-.5,1.3-.4,1.6-.7a12.3,12.3,0,0,1,3.3-1.2l1.5-.4h.5c1.4-.3,3.2-.2,3.5.1a5.6,5.6,0,0,0,2.9.8,3.7,3.7,0,0,0,2.2-.3c.8-.3,1-.4,1.3-.9h0a8.5,8.5,0,0,1,3.2,0h.6l1.4.4c2.7.9,4.8,2,7.8,2.9l1.1.4c4.5,1.6,9,.4,13.7-1l2.2-1,.8-.3,2.8-1a10.9,10.9,0,0,1,4.2-.9h2.3a24.1,24.1,0,0,0,3.4.8l1.5.6a42.4,42.4,0,0,1,5.1,2.1l.8.4,2,.9a53.1,53.1,0,0,0,6,2.2c.7.3,1,.3,2.9.2s2.8-.1,4.9-1.3,1.5-.9,1.7-1.4l.6-.8a3.6,3.6,0,0,0,.3-2.4,2.4,2.4,0,0,0-2.4-1.7c-.7,0-.8.1-1.1.4s-.6,1,.1,2.1.6.5.3-.3.3-2.1,1.6-1.4a1.7,1.7,0,0,1,.6,2.6,4.6,4.6,0,0,1-3.2,1.9,6.9,6.9,0,0,1-3.2,0,29.2,29.2,0,0,1-4.2-1.4l-.5-.3-.9-.5-1-.5c-1.3-.7-2.4-1.5-3.7-2.1l-1.5-.8-1-.4-2.4-1H210a32.7,32.7,0,0,0-4.6-1.4,7.7,7.7,0,0,0-3.1-.2,6,6,0,0,0-2.3.3l-1.1.2a11.5,11.5,0,0,0-2.8,1,24.7,24.7,0,0,0-3.6,1.9l-1.6,1.1c-7.5,4.5-12.5,1-19-1.2-.9-.3-2.7-1.3-3.4-1.4h-.2a36.2,36.2,0,0,0,4.3-1.4l.8-.3,1.6-.6,2.3-.9a19.1,19.1,0,0,0,3.2-1.5,9.8,9.8,0,0,0,2-1.8c0-.1,0-.2.1-.2a4,4,0,0,0,1.1-2,3.7,3.7,0,0,0,.2-2.5,3.8,3.8,0,0,0-3.1-2.4,8,8,0,0,0-2.6.3c-.2.1-.1,0,.2-.5s.3-.7.4-1.8a2.6,2.6,0,0,0-.7-2.4,3.4,3.4,0,0,0-1.5-.6Zm.4.7h.5a1.6,1.6,0,0,1,1.1,1,2.4,2.4,0,0,1,.1,1.9,6,6,0,0,1-1.4,2.2c-.6.3-.6.1-.3-.7a2.7,2.7,0,0,0,0-2.2,1.1,1.1,0,0,0-1-.4,6.2,6.2,0,0,0-3,1.3,35.5,35.5,0,0,0-3.1,2.8c-1.4,1.6-2.7,3.4-3.9,5l-.6.7a2.8,2.8,0,0,1-.5.8,14.8,14.8,0,0,0-1.6,3l-.3,1.1c-.2.5-.3.6-.5.6h-.3c0-.1,0-.2.1-.1a7.7,7.7,0,0,0,.9-2.2,9.9,9.9,0,0,1,.6-1.3l.6-1.2a24.1,24.1,0,0,1,7.7-9.8l1-.8.6-.4a8.4,8.4,0,0,1,3.3-1.3ZM146,152.3h.6a17.5,17.5,0,0,1,3.5,2,30.6,30.6,0,0,1,6.3,9.7,10.4,10.4,0,0,0,.5,1.2l.5,1.2a1.2,1.2,0,0,0,.2.6,4.1,4.1,0,0,1,.2.7c0,.3-.4-.2-.7-.9a2.6,2.6,0,0,0-.4-.9,5.5,5.5,0,0,1-.5-1.2,28.7,28.7,0,0,0-6.8-10,5.3,5.3,0,0,0-2.7-1.5,1.8,1.8,0,0,0-1.3.1c-.8.4-.9.6-1,1.6a7.3,7.3,0,0,0,2.1,4.7l.8.9a43.8,43.8,0,0,0,5.6,5.1l1.6,1.2.7.6.7.5.3.4c0,.2-1.9-.7-2-1l-.5-.2-.4-.2-.9-.6a11.8,11.8,0,0,1-2.2-1.4c-1.7-1.5-3.6-2.8-5-4.9a1.1,1.1,0,0,0-.3-.6,6.5,6.5,0,0,1-1-2.2c-.8-2.3-.2-4.3,1.5-4.8l.6-.2Zm29.4.8a.5.5,0,0,1,.5.3,2,2,0,0,1-.1,1.3,2.6,2.6,0,0,0-.3.8c0,.6-.3.9-1.2,1.3a19.7,19.7,0,0,0-3.8,2.1,36.2,36.2,0,0,0-4.2,3.8l-1.1,1.3c-.3.3-1.4,2.1-1.7,2.4s-.6.7-.5.4a12.9,12.9,0,0,1,1.2-2.3l.6-1,.5-.8.6-.8.5-.8a40.8,40.8,0,0,1,4.6-5.4c2-1.8,3.6-2.7,4.4-2.6Zm-29.2.9,1.2.2a2.6,2.6,0,0,1,1.6,1l1.1,1a17,17,0,0,1,2.1,2.6,24.9,24.9,0,0,1,3,5.2l.9,2.1c0,.2-.8-.6-1.9-2.1s-1.7-2-2.4-3l-.6-.8c-.1-.2-.2-.4-.3-.4l-.9-.9a11,11,0,0,0-1.6-1.5l-.9-.8-1-.7c-1.3-1.1-1.5-1.3-1-1.7s.4-.2.7-.2Zm-4.1.7h.8v.8c.1,1.4.1,1.3-.6,1.1H141a1.8,1.8,0,0,0-1.3.4,1.2,1.2,0,0,0-.6,1,3.8,3.8,0,0,0,1,3,9.9,9.9,0,0,0,4.4,3.7,11.2,11.2,0,0,0,3.1,1.5h.3l3.8,1.6,1.4.5.4.2h.3c.1.2,0,.2-.1.1l-1.2-.4-.9-.3-1.2-.4-1.2-.4-3.2-1.3a32,32,0,0,1-5.2-2.9c-.7-.6-1.9-1.8-1.8-2l-.4-.7c-.8-1.3-.9-3.7-.1-4.5a5.2,5.2,0,0,1,3.6-1.1Zm38,.7,1.8.5.6.3a3.6,3.6,0,0,1,.8,1.2h.1a3.3,3.3,0,0,1,0,1.5,7.5,7.5,0,0,1-1.3,2.5,14.1,14.1,0,0,1-2.4,2l-2.2,1-4.4,1.7-1.2.5-1,.3-3.4,1-2,.4H165a18.7,18.7,0,0,1,3.3-1.5l3.4-1.4,4.8-2.2a14.2,14.2,0,0,0,4.3-2.5c.7-.6,1.4-2,1.2-2.6s-1.2-1.1-4.3,0l-3.4,1.6-3.2,1.9-2.3,1.6-1,.8-1,.8-2.2,1.9a5.4,5.4,0,0,1-1.5,1.1c0-.1.1-.3.2-.3l.2-.3a21.8,21.8,0,0,1,3-3.8l.5-.6c2.3-2.3,4.9-4.6,7.7-5.7a15.6,15.6,0,0,1,4.3-1.6l.6-.2Zm-34.8.3.5.4a20.7,20.7,0,0,1,3.2,2.7l.8.7c.1,0,1.3,1.6,2.1,2.6l1.9,2.4c2.1,2.7,2,2.4,1.5,2.2l-.4-.3-.8-.7-.8-.7-.4-.3-.5-.4a22.3,22.3,0,0,1-4.9-4.6c-1.3-1.5-2.1-2.7-2.1-3.4Zm-4.4,1.4h.7c1.2.1,1.6.3,1.8.9a12.7,12.7,0,0,0,2.3,3.9,31.6,31.6,0,0,0,4.4,3.8l1.1.7c1.1.6,1.3.9.3.4l-2.7-1a7.3,7.3,0,0,1-1.9-.7,5.4,5.4,0,0,1-1.5-.9c-2.4-1.2-4.7-2.7-5.5-5.3-.2-.8-.2-.9-.1-1.3a1.1,1.1,0,0,1,1.1-.6Zm39.9,1.1h.4c.6.4.1,1.4-1.2,2.5l-1.4,1-4.7,2.1-5,2.1.8-.5a13,13,0,0,0,3.1-2.1,11.3,11.3,0,0,0,1.3-1,14.1,14.1,0,0,0,2.3-2.8l.4-.2.4-.2a14.7,14.7,0,0,1,3-1Zm-5.8,2.3-.4.5-.4.6-.3.3-.9.6a20,20,0,0,1-3.3,2.4l-.9.4-1,.6-1.3.7-.9.5-.4.2.2-.3.6-.6.8-.5a38.8,38.8,0,0,1,3.8-2.9c.2-.1.4-.2.4-.3l.8-.5,1.1-.7,1.2-.7c.5-.3.9-.4.9-.3Zm-57.3,6.6a19.7,19.7,0,0,1,2.9.4,20.9,20.9,0,0,1,4,1.3l1.1.5a34.2,34.2,0,0,1,4.1,2.7c4,2.7,8.6,2.9,14.3.6l3-1.3,2.7-.8a11.7,11.7,0,0,1,4.7-.6l1.5.2.8.3H156a16.6,16.6,0,0,0-7.1,1.3,25.9,25.9,0,0,1-3.7,1.5l-2.3.7c-4.4,1.7-9.1.6-13.1-.8a7.7,7.7,0,0,1-1.9-.8,16.9,16.9,0,0,0-3.2-1.4l-.7-.2-.9-.4a14.1,14.1,0,0,0-5.7-.8,11.6,11.6,0,0,0-3.7.7l-1.3.4a85.1,85.1,0,0,0-8.3,3.4,55.5,55.5,0,0,1-6.4,2.4,10.4,10.4,0,0,1-5.3-.3l-1.3-.6q-1.2-.7,0-.3a6.7,6.7,0,0,0,3.5.2,18.9,18.9,0,0,0,6.4-2.2,5.8,5.8,0,0,1,1.4-.8l1.3-.7.8-.4,1.1-.6,1.2-.6.4-.2c.5-.2,1.8-.9,2.5-1.1s4.3-1.3,4.7-1.4h.8a10.1,10.1,0,0,1,2.5-.3Zm85.2.2,2.5.2.8.2,4.6,1.4a19.7,19.7,0,0,1,2.5,1.2l.5.2a3,3,0,0,1,1.1.6l1.1.6.8.5,1.3.7,1.4.7a19,19,0,0,0,6.3,2.3,5.8,5.8,0,0,0,3.5-.1q1.3-.5,0,.3l-1.2.6c-.8.5-4.3.6-5.3.2s-4.3-1.5-6.5-2.5-5.4-2.3-8.1-3.5l-1.3-.4a9.9,9.9,0,0,0-3.8-.7,12.5,12.5,0,0,0-5.7.7l-.9.3-.7.3a12.9,12.9,0,0,0-3.2,1.3,7.7,7.7,0,0,1-1.9.8c-4,1.3-8.7,2.3-13.1.6s-8.6-3.7-13.1-3.7h-.6v-.2c0-.2.1-.2.1-.3l.2-.2H166c1-.2,3.3.6,4.7,1.1a35.4,35.4,0,0,1,5.7,2.2c5.7,2.4,10.2,2.2,14.4-.4,1.3-.9,3.5-2.4,4-2.6l1.1-.5a16.4,16.4,0,0,1,4.1-1.3l2.9-.3ZM162,168.4l1,.6a.9.9,0,0,1,.4.9c-.1.6-.5,1-1.3,1.3s-.7.2-1.1-.1-.9-1.4,0-2.1.7-.6,1-.5Zm-3,.2h.1a.2.2,0,0,1-.2.2c-.4-.1-.7,1.3-.5,1.9s.1.5-.5.1a.6.6,0,0,1-.3-.8.9.9,0,0,1,.4-.8,1.8,1.8,0,0,1,1-.7Zm.7.7v.5a1.4,1.4,0,0,0,.2,1.1l.3.5c-.7.2-1-.1-1.1-.8s.1-1.2.4-1.3Zm0,0" transform="translate(-87.5 -149.8)"/></svg>