<svg id="Layer_1" data-name="Layer 1" xmlns="http://www.w3.org/2000/svg" viewBox="0 0 92.9 13.4"><title>bunga3</title><path d="M191.1,171.5l-.6-.2h-1.3c0-.1-1.6-.3-1.8-.4l-2.8-.2c-.8-.1-1.1-.1-1.3.1a9.3,9.3,0,0,1-1.8,1.3l-.8.2c-3.7-.3-7.5-.5-10.8-.9h-.7l-2-.2H164c-.1-.1,0-.5.4-1.1s.2-.6,0-.7l-1,.3-1.2.5-.6.2-.8.3c-.5.1-1,.5-1,.7l2.1,1.2.8.4a2.6,2.6,0,0,0,1.5.5c.2,0,.2-.3,0-1s-.3-.9,0-.8h.6l1.9.2h2c3.7.5,7,.6,10.7,1h1c.7,0,.8.1,1,.3a6,6,0,0,0,1.8,1.6,4.3,4.3,0,0,1,1.6.1l1.3.2,1.9.4.8.2h.9l1,.2c.3-.2.3-.4-.2-.6l-1.1-1.1a1.5,1.5,0,0,1-.6-.7c-.1-.1.1-.2.7-.5a3.8,3.8,0,0,0,1.6-1.3c.1-.1.1-.2,0-.2Zm-.9.4h0l-.5.4c-1.5,1-1.5,1-2.7.8s-.9-.2-.5-.4a4.5,4.5,0,0,0,1.4-1,.4.4,0,0,1,.5-.1h1.1l.7.2Zm-2.9-.4-.4.3-.5.4c-.8.6-.7.7-1.6.6l-.8-.2c-.1-.1.2-.3,1-.8s.9-.5,1.7-.4Zm1.2,2.6.7.7c.3.4.1.5-.7.3s-.6-.2-1-.7l-.6-.6c0-.1.5-.2.9-.1s.4.2.7.4Zm-3.8-2.9a4.4,4.4,0,0,1-1.5,1.2c0,.2-.8.1-1,0l.2-.2.3-.2a2.6,2.6,0,0,1,1.6-.8Zm1.6,2.8q.3.1.3.3v.3a1.5,1.5,0,0,1-1.1-.3l-.4-.5c-.4-.4-.4-.5-.1-.5a3.7,3.7,0,0,1,1.2.7Zm-2.4-.5.3.3c.5.4.5.4.2.4h-.6a1.3,1.3,0,0,1-1-.4c-.9-.7-.8-.8.4-.5h0a.9.9,0,0,1,.7.3Zm0,0" transform="translate(-98.2 -163.6)"/><path d="M98.3,171.5l.6-.2h1.3c0-.1,1.6-.3,1.8-.4l2.8-.2c.8-.1,1.1-.1,1.3.1a9.3,9.3,0,0,0,1.8,1.3l.8.2c3.7-.3,7.5-.5,10.7-.9h.8l1.9-.2h3.3c.1-.1-.1-.5-.5-1.1s-.1-.6.1-.7l1,.3,1.2.5.6.2.8.3c.5.1,1,.5.9.7l-2.1,1.2-.8.4a2.2,2.2,0,0,1-1.4.5c-.3,0-.3-.3,0-1s.3-.9,0-.8h-.6l-2,.2h-1.9c-3.8.5-7,.6-10.7,1h-1c-.7,0-.8.1-1,.3a10.1,10.1,0,0,1-1.8,1.6,4.3,4.3,0,0,0-1.6.1l-1.3.2-1.9.4-.8.2h-.9l-1,.2c-.3-.2-.3-.4.1-.6s.5-.3,1.2-1.1l.6-.7-.7-.5a5.2,5.2,0,0,1-1.7-1.3c0-.1,0-.2.1-.2Zm.9.4h0l.5.4c1.5,1,1.5,1,2.7.8s.8-.2.4-.4a5.7,5.7,0,0,1-1.3-1,.4.4,0,0,0-.5-.1H99.8l-.6.2Zm2.9-.4.3.3.6.4c.8.6.7.7,1.6.6l.8-.2c.1-.1-.2-.3-1-.8s-.9-.5-1.7-.4Zm-1.2,2.6-.7.7c-.3.4-.2.5.7.3s.6-.2,1-.7l.5-.6c0-.1-.4-.2-.8-.1s-.4.2-.7.4Zm3.8-2.9a4.1,4.1,0,0,0,1.4,1.2c.1.2.9.1,1.1,0l-.2-.2-.3-.2c-.8-.6-1.2-.8-1.6-.8ZM103,174c-.1.1-.2.2-.2.3s-.2.3-.1.3a1.5,1.5,0,0,0,1.1-.3l.4-.5c.4-.4.4-.5,0-.5l-1.2.7Zm2.4-.5-.2.3c-.5.4-.5.4-.3.4h.7a1.3,1.3,0,0,0,1-.4c.9-.7.7-.8-.4-.5h0a1.3,1.3,0,0,0-.8.3Zm0,0" transform="translate(-98.2 -163.6)"/><path d="M149.3,165.4a2.8,2.8,0,0,0-1.3-.3,2.4,2.4,0,0,0-2,.6l-.8.6-.2.2v-.3a.4.4,0,0,0-.1-.3l-.2-.3-.4-.7a1.8,1.8,0,0,0-1-.9,2.3,2.3,0,0,0-2-.3c-.4,0-.5.1-1,.6a2.2,2.2,0,0,0-.8.9,6.8,6.8,0,0,0-.7,2.3,5.3,5.3,0,0,0,.6,2.3l.2.4,1.4,2.5c.5.8,1.2,2.2,1.4,2.6s0,.2.1.2l.4.7c.4.7.5.9.7.8l.8-.9a8,8,0,0,1,1.3-1.3,28.1,28.1,0,0,0,3-2.9l.6-.8a11.9,11.9,0,0,0,1.3-2.5,2.2,2.2,0,0,0-.2-2.2l-1-1Zm-.4.5a1.6,1.6,0,0,1,.9.7,2.4,2.4,0,0,1,.4,1.7,9,9,0,0,1-.6,1.4,8.3,8.3,0,0,1-1.8,2.4l-.7.8-1,.9a3.2,3.2,0,0,0-.8.6l-.3.3c-.3.3-1.4,1.2-1.5,1.4h-.2a3.3,3.3,0,0,1-.6-1.2l-.3-.5-.2-.4a7.2,7.2,0,0,0-.9-1.6c-.6-.9-1.3-2.2-1.4-2.4a2.1,2.1,0,0,0-.2-.6,4.2,4.2,0,0,1,0-3.8,2.1,2.1,0,0,1,.8-1,1.8,1.8,0,0,1,2.3-.3,3,3,0,0,1,1.5,1.8l.3.4a.5.5,0,0,1,.1.3l.2.2c.1.1.2,0,.6-.4a2.8,2.8,0,0,1,3.4-.7Zm0,0" transform="translate(-98.2 -163.6)"/></svg>